<?xml version="1.0" encoding="UTF-8" standalone="no"?>
<!-- Created with Inkscape (http://www.inkscape.org/) -->

<svg
   xmlns:dc="http://purl.org/dc/elements/1.1/"
   xmlns:cc="http://creativecommons.org/ns#"
   xmlns:rdf="http://www.w3.org/1999/02/22-rdf-syntax-ns#"
   xmlns:svg="http://www.w3.org/2000/svg"
   xmlns="http://www.w3.org/2000/svg"
   xmlns:sodipodi="http://sodipodi.sourceforge.net/DTD/sodipodi-0.dtd"
   xmlns:inkscape="http://www.inkscape.org/namespaces/inkscape"
   width="22"
   height="22"
   id="svg3061"
   version="1.1"
   inkscape:version="0.91 r13725"
   sodipodi:docname="bykde.svgz">
  <defs
     id="defs3063" />
  <sodipodi:namedview
     id="base"
     pagecolor="#bbbbbb"
     bordercolor="#666666"
     borderopacity="1.0"
     inkscape:pageopacity="1"
     inkscape:pageshadow="2"
     inkscape:zoom="5.5"
     inkscape:cx="64.991584"
     inkscape:cy="22.90239"
     inkscape:current-layer="g4371"
     showgrid="true"
     inkscape:document-units="px"
     inkscape:grid-bbox="true"
     inkscape:window-width="1920"
     inkscape:window-height="762"
     inkscape:window-x="0"
     inkscape:window-y="141"
     inkscape:window-maximized="0">
    <inkscape:grid
       type="xygrid"
       id="grid3069"
       empspacing="5"
       visible="true"
       enabled="true"
       snapvisiblegridlinesonly="true" />
  </sodipodi:namedview>
  <metadata
     id="metadata3066">
    <rdf:RDF>
      <cc:Work
         rdf:about="">
        <dc:format>image/svg+xml</dc:format>
        <dc:type
           rdf:resource="http://purl.org/dc/dcmitype/StillImage" />
        <dc:title></dc:title>
      </cc:Work>
    </rdf:RDF>
  </metadata>
  <g
     id="layer1"
     inkscape:label="Layer 1"
     inkscape:groupmode="layer"
     transform="translate(0,-42)">
    <g
       id="g4371"
       transform="matrix(2,0,0,2,0,-64)">
      <rect
         y="-1.3322676e-15"
         x="0"
         height="64"
         width="64"
         id="rect3861"
         style="opacity:0;fill:#ffffff;fill-opacity:1;stroke:none" />
      <path
         d="m 6.412533,53.000003 -1.932433,0.175781 0,7.531255 1.911788,-0.273438 0,-3.210939 2.572449,3.562502 2.015015,-0.605469 -2.634385,-3.425783 2.655031,-3.230471 -2.056306,-0.445313 -2.551804,3.230471 0.02064,-3.308596 z m -4.381008,1.835939 c -0.02185,0.0021 -0.04548,0.0078 -0.06194,0.02344 l -0.759761,0.718751 c -0.03191,0.03028 -0.03581,0.07663 -0.01238,0.113281 l 0.887763,1.386719 C 1.927573,57.328818 1.799569,57.597728 1.709456,57.882819 L 0.07845,58.203132 C 0.03306,58.212032 0,58.252882 0,58.296882 l 0,1.015626 c 0,0.04294 0.03452,0.07972 0.07845,0.08984 l 1.581458,0.363282 c 0.08456,0.330061 0.215212,0.645909 0.388139,0.933593 L 1.13138,62.019539 c -0.02557,0.03687 -0.02058,0.08606 0.01238,0.117187 l 0.759759,0.718751 c 0.03201,0.03019 0.0811,0.03397 0.119746,0.01171 l 1.436941,-0.82422 c 0.281837,0.153936 0.586965,0.277249 0.908408,0.359375 l 0.33446,1.523438 C 4.712474,63.96885 4.751564,64 4.798044,64 l 1.073574,0 c 0.04506,0 0.08427,-0.02862 0.09497,-0.07031 l 0.396395,-1.531251 c 0.331518,-0.08456 0.64408,-0.210096 0.933184,-0.371094 l 1.416291,0.878906 c 0.03904,0.02406 0.09078,0.0194 0.123875,-0.01171 L 9.591964,62.17579 c 0.03211,-0.03031 0.04003,-0.07672 0.01652,-0.11328 L 9.092342,61.25782 8.923047,61.3086 c -0.02444,0.0071 -0.05153,-0.0033 -0.06607,-0.02344 0,0 -0.326039,-0.453723 -0.751501,-1.04297 -0.508839,0.941933 -1.54655,1.58594 -2.741744,1.58594 -1.698351,0 -3.076202,-1.30348 -3.076202,-2.910159 0,-1.181837 0.747047,-2.196911 1.816817,-2.652346 l 0,-0.75 c -0.194695,0.06447 -0.382788,0.14225 -0.561561,0.234375 -2.25e-4,-1.34e-4 3.66e-4,-0.0037 0,-0.0039 L 2.093463,54.847642 c -0.01949,-0.01206 -0.04009,-0.01385 -0.06194,-0.01171 z"
         style="fill:#5c617e;fill-opacity:1"
         id="path2876"
         inkscape:connector-curvature="0" />
    </g>
  </g>
</svg>
